<svg width="1160" height="1140" viewBox="0 0 1160 1140" fill="none" xmlns="http://www.w3.org/2000/svg">
<path d="M19.5288 133.863L5.57738 178.254C2.43389 188.256 7.54784 198.988 17.2963 202.846L87.0168 230.444C92.6919 232.691 97.0306 237.405 98.7985 243.247L134.373 360.798C138.17 373.346 128.779 386 115.669 386C109.576 386 103.831 388.842 100.134 393.686L58.2609 448.555C52.3374 456.317 52.8842 467.221 59.5545 474.351L102.391 520.142C104.756 522.671 106.425 525.77 107.233 529.137L140.087 666.027C141.313 671.136 144.5 675.557 148.959 678.335L254.947 744.36C260.605 747.885 264.135 753.998 264.36 760.66L272.502 1001.65C273.084 1018.87 293.717 1027.35 306.234 1015.51L334.78 988.505C342.275 981.416 353.931 981.19 361.695 987.983L414.514 1034.2C422.157 1040.89 423.455 1052.29 417.509 1060.53C409.784 1071.22 414.568 1086.34 427.038 1090.64L551.36 1133.56C561.697 1137.13 572.983 1131.74 576.698 1121.45L588.754 1088.07C592.678 1077.2 604.966 1071.91 615.557 1076.52L646.008 1089.8C659.219 1095.56 674 1085.88 674 1071.46V884.655C674 882.893 674.233 881.138 674.693 879.437L690.005 822.782C692.362 814.059 700.276 808 709.312 808H834.417C844.128 808 852 815.872 852 825.583C852 839.538 867.475 847.932 879.172 840.322L984.618 771.719C998.405 762.748 996.073 741.896 980.644 736.194L934.635 719.191C929.155 717.166 924.834 712.845 922.809 707.365L896.752 636.859C893.888 629.109 896.084 620.396 902.28 614.93L919.208 599.993C923.525 596.184 929.274 594.42 934.984 595.152L1110.94 617.711C1128.78 619.997 1140.34 599.42 1129.1 585.379L1125.92 581.394C1122.17 576.714 1120.72 570.601 1121.97 564.738L1158.79 391.671C1159.58 387.967 1159.3 384.114 1157.99 380.563L1124.03 288.875C1121.54 282.149 1115.64 277.273 1108.56 276.093L1076.71 270.785C1067.07 269.178 1060 260.834 1060 251.057V226.607C1060 217.906 1054.37 210.203 1046.09 207.555L938.234 173.103C927.236 169.589 916 177.795 916 189.341C916 200.684 905.128 208.864 894.229 205.72L713.451 153.572C709.887 152.544 706.68 150.546 704.187 147.8L582.01 13.2286C575.169 5.69392 563.762 4.49744 555.506 10.4488L489.704 57.8877C486.012 60.5494 481.523 61.8721 476.977 61.6375L179.485 46.2831C175.895 46.0978 172.321 46.8837 169.139 48.5582L29.2937 122.161C24.6218 124.62 21.1117 128.826 19.5288 133.863Z" fill="#FFE1BF"/>
<path fill-rule="evenodd" clip-rule="evenodd" d="M573.685 7.74961L544.359 79.3596C541.662 85.9477 542.669 93.4732 547.005 99.1197L621.865 196.612C624.548 200.106 626.002 204.388 626.002 208.793V308C626.002 319.046 634.956 328 646.002 328H761.701C764.536 328 767.339 328.603 769.923 329.768L859.613 370.217C864.937 372.618 871.045 372.571 876.333 370.09L963.511 329.169C965.164 328.393 966.703 327.395 968.085 326.201L996.257 301.871C1004.05 295.138 1015.69 295.427 1023.14 302.54L1087.07 363.569C1093.54 369.741 1103.32 370.873 1111.02 366.34L1145.26 346.2L1157.99 380.563C1159.3 384.114 1159.58 387.967 1158.8 391.671L1122.21 563.637L974.166 548.428C971.42 548.146 968.761 547.298 966.358 545.938L874.046 493.685C867.83 490.167 860.21 490.23 854.054 493.852L775.024 540.34C767.318 544.873 757.54 543.741 751.074 537.569L687.139 476.54C679.688 469.427 668.053 469.138 660.257 475.871L632.085 500.201C630.703 501.395 629.164 502.393 627.51 503.169L540.333 544.09C535.045 546.571 528.937 546.618 523.612 544.217L433.923 503.768C431.338 502.603 428.536 502 425.701 502H310.002C298.956 502 290.002 493.046 290.002 482V382.793C290.002 378.388 288.548 374.106 285.865 370.612L211.004 273.12C206.669 267.473 205.661 259.948 208.359 253.36L288.591 57.4459C289.389 55.4956 290.49 53.6859 291.851 52.0826L476.979 61.6376C481.524 61.8722 486.014 60.5494 489.706 57.8877L555.508 10.4488C560.936 6.53593 567.726 5.7129 573.685 7.74961Z" fill="#FFE1BF"/>
<path fill-rule="evenodd" clip-rule="evenodd" d="M573.685 7.74961L544.359 79.3596C541.662 85.9477 542.669 93.4732 547.005 99.1197L621.865 196.612C624.548 200.106 626.002 204.388 626.002 208.793V308C626.002 319.046 634.956 328 646.002 328H761.701C764.536 328 767.339 328.603 769.923 329.768L859.613 370.217C864.937 372.618 871.045 372.571 876.333 370.09L963.511 329.169C965.164 328.393 966.703 327.395 968.085 326.201L996.257 301.871C1004.05 295.138 1015.69 295.427 1023.14 302.54L1087.07 363.569C1093.54 369.741 1103.32 370.873 1111.02 366.34L1145.26 346.2L1157.99 380.563C1159.3 384.114 1159.58 387.967 1158.8 391.671L1122.21 563.637L974.166 548.428C971.42 548.146 968.761 547.298 966.358 545.938L874.046 493.685C867.83 490.167 860.21 490.23 854.054 493.852L775.024 540.34C767.318 544.873 757.54 543.741 751.074 537.569L687.139 476.54C679.688 469.427 668.053 469.138 660.257 475.871L632.085 500.201C630.703 501.395 629.164 502.393 627.51 503.169L540.333 544.09C535.045 546.571 528.937 546.618 523.612 544.217L433.923 503.768C431.338 502.603 428.536 502 425.701 502H310.002C298.956 502 290.002 493.046 290.002 482V382.793C290.002 378.388 288.548 374.106 285.865 370.612L211.004 273.12C206.669 267.473 205.661 259.948 208.359 253.36L288.591 57.4459C289.389 55.4956 290.49 53.6859 291.851 52.0826L476.979 61.6376C481.524 61.8722 486.014 60.5494 489.706 57.8877L555.508 10.4488C560.936 6.53593 567.726 5.7129 573.685 7.74961Z" fill="#130D17" fill-opacity="0.1"/>
<path d="M281 641L398.866 685.08C402.227 686.337 405.187 688.475 407.438 691.27L461.578 758.508C464.44 762.062 466 766.488 466 771.051V874.588C466 882.19 470.31 889.135 477.122 892.51L553.17 930.185C564.469 935.783 578.066 929.655 581.356 917.482L602.589 838.921C604.119 833.261 608.055 828.558 613.356 826.054L677 796" stroke="#FFE1BF" stroke-width="50" stroke-linecap="round"/>
<path d="M281 641L398.866 685.08C402.227 686.337 405.187 688.475 407.438 691.27L461.578 758.508C464.44 762.062 466 766.488 466 771.051V874.588C466 882.19 470.31 889.135 477.122 892.51L553.17 930.185C564.469 935.783 578.066 929.655 581.356 917.482L602.589 838.921C604.119 833.261 608.055 828.558 613.356 826.054L677 796" stroke="#130D17" stroke-opacity="0.1" stroke-width="50" stroke-linecap="round"/>
</svg>
