<svg width="936" height="832" viewBox="0 0 936 832" fill="none" xmlns="http://www.w3.org/2000/svg">
<path d="M78.2655 275.286L94.7582 106.694C95.5156 98.9516 100.694 92.3508 108.033 89.772L310.72 18.5577C315.405 16.9117 320.535 17.0673 325.111 18.9942L346.312 27.9207C352.377 30.4746 359.311 29.8811 364.854 26.3335L397.821 5.23481C402.985 1.92945 409.381 1.17589 415.172 3.1903L445.92 13.8852C449.873 15.2603 454.159 15.3604 458.172 14.1712L499.679 1.87288C503.784 0.656482 508.172 0.789711 512.196 2.25297L548.044 15.2887C549.344 15.7616 550.592 16.3683 551.768 17.0989L613.413 55.4187C619.893 59.447 628.101 59.437 634.571 55.3929L658.949 40.1569C666.643 35.3484 676.609 36.321 683.228 42.5261L693.529 52.1833C699.787 58.0505 709.09 59.2731 716.652 55.2221L738.695 43.4134C749.754 37.4887 763.475 43.0918 767.225 55.0644L810.596 193.517C811.519 196.466 813.114 199.16 815.253 201.389L854.428 242.196C858.003 245.92 860 250.883 860 256.046V278.469C860 285.606 863.803 292.202 869.979 295.777L923.53 326.78C930.977 331.092 934.832 339.685 933.1 348.114L907.061 474.836C906.366 478.221 904.805 481.368 902.532 483.97L743.36 666.154C741.155 668.677 738.352 670.607 735.207 671.764L454.668 775.018C452.898 775.669 451.23 776.568 449.712 777.686L385.552 824.962C379.663 829.301 371.875 830.079 365.244 826.99L249.079 772.886C238.703 768.054 234.492 755.515 239.848 745.399L240.911 743.391C245.103 735.472 243.517 725.73 237.028 719.55L165.997 651.902C164.672 650.64 163.18 649.566 161.562 648.709L103.563 618.004C98.733 615.447 93.0663 614.978 87.8812 616.706L77.7224 620.093C67.7452 623.418 56.8967 618.449 52.8991 608.721L3.02946 487.372C1.0842 482.638 1.02745 477.339 2.87089 472.565L77.0179 280.544C77.6696 278.856 78.0893 277.087 78.2655 275.286Z" fill="#FFE1BF"/>
<path d="M703.252 524.684L616 514V636.126C616 642.951 622.687 647.771 629.162 645.613L688.519 625.827C691.911 624.696 694.44 621.842 695.155 618.34L711.835 536.609C713.002 530.891 709.045 525.393 703.252 524.684Z" fill="#FFE1BF"/>
<path d="M703.252 524.684L616 514V636.126C616 642.951 622.687 647.771 629.162 645.613L688.519 625.827C691.911 624.696 694.44 621.842 695.155 618.34L711.835 536.609C713.002 530.891 709.045 525.393 703.252 524.684Z" fill="#130D17" fill-opacity="0.1"/>
<path d="M476 392L616 514M616 514L703.252 524.684C709.045 525.393 713.002 530.891 711.835 536.609L695.155 618.34C694.44 621.842 691.911 624.696 688.519 625.827L629.162 645.613C622.687 647.771 616 642.951 616 636.126V514Z" stroke="#FFE1BF" stroke-width="50" stroke-linecap="round" stroke-linejoin="round"/>
<path d="M476 392L616 514M616 514L703.252 524.684C709.045 525.393 713.002 530.891 711.835 536.609L695.155 618.34C694.44 621.842 691.911 624.696 688.519 625.827L629.162 645.613C622.687 647.771 616 642.951 616 636.126V514Z" stroke="#130D17" stroke-opacity="0.1" stroke-width="50" stroke-linecap="round" stroke-linejoin="round"/>
<path fill-rule="evenodd" clip-rule="evenodd" d="M136.348 635.361L103.563 618.004C98.7321 615.447 93.0654 614.978 87.8802 616.706L77.7215 620.092C67.7443 623.418 56.8958 618.449 52.8982 608.721L3.02854 487.372C1.08328 482.638 1.02653 477.339 2.86997 472.565L76.7929 281.124C79.8654 280.729 83.0018 281.051 85.9507 282.083L142.389 301.836C152.306 305.308 157.847 315.861 155.072 325.995L117.319 463.875C115.289 471.287 117.686 479.206 123.485 484.249L153.123 510.021C157.491 513.819 159.999 519.324 159.999 525.113V586.9C159.999 590.247 159.159 593.539 157.557 596.477L136.348 635.361ZM793.999 239C807.806 239 818.999 250.193 818.999 264V324.541C818.999 332.384 816.365 339.999 811.52 346.165L800.165 360.618L817.56 409.64C822.177 422.652 815.372 436.944 802.359 441.561C789.347 446.178 775.056 439.373 770.438 426.36L750.28 369.551C746.267 358.24 748.329 345.661 755.744 336.223L768.999 319.353V264C768.999 250.193 780.192 239 793.999 239Z" fill="#FFE1BF"/>
<path fill-rule="evenodd" clip-rule="evenodd" d="M136.348 635.361L103.563 618.004C98.7321 615.447 93.0654 614.978 87.8802 616.706L77.7215 620.092C67.7443 623.418 56.8958 618.449 52.8982 608.721L3.02854 487.372C1.08328 482.638 1.02653 477.339 2.86997 472.565L76.7929 281.124C79.8654 280.729 83.0018 281.051 85.9507 282.083L142.389 301.836C152.306 305.308 157.847 315.861 155.072 325.995L117.319 463.875C115.289 471.287 117.686 479.206 123.485 484.249L153.123 510.021C157.491 513.819 159.999 519.324 159.999 525.113V586.9C159.999 590.247 159.159 593.539 157.557 596.477L136.348 635.361ZM793.999 239C807.806 239 818.999 250.193 818.999 264V324.541C818.999 332.384 816.365 339.999 811.52 346.165L800.165 360.618L817.56 409.64C822.177 422.652 815.372 436.944 802.359 441.561C789.347 446.178 775.056 439.373 770.438 426.36L750.28 369.551C746.267 358.24 748.329 345.661 755.744 336.223L768.999 319.353V264C768.999 250.193 780.192 239 793.999 239Z" fill="#130D17" fill-opacity="0.1"/>
</svg>
