<svg width="1154" height="1156" viewBox="0 0 1154 1156" fill="none" xmlns="http://www.w3.org/2000/svg">
<path d="M584.076 82.8054L627.004 161.508C632.061 170.778 629.039 182.383 620.103 188.009L477.565 277.755C475.214 279.235 472.581 280.21 469.832 280.616L305.04 304.96C300.487 305.633 296.304 307.856 293.199 311.254L91.9475 531.491C88.1584 535.638 82.8003 538 77.1833 538H72.1562C60.3035 538 51.0513 548.25 52.2606 560.041L71.7394 749.959C72.9487 761.75 63.6965 772 51.8438 772H36.3141C20.5573 772 10.9886 789.374 19.4113 802.691L146.89 1004.24C147.628 1005.41 148.485 1006.5 149.447 1007.49L211.691 1071.56C214.498 1074.45 218.112 1076.43 222.06 1077.23L352.032 1103.6C353.341 1103.87 354.673 1104 356.009 1104H392.152C398.361 1104 404.219 1106.88 408.004 1111.81L432.16 1143.21C437.902 1150.67 448.073 1153.12 456.582 1149.08L628.626 1067.5C633.353 1065.26 638.77 1064.96 643.715 1066.66L747.173 1102.34C750.34 1103.43 753.731 1103.71 757.035 1103.15L985.111 1064.49C987.027 1064.16 988.885 1063.56 990.627 1062.7L1134.62 991.573C1145.07 986.411 1148.91 973.44 1142.95 963.42L1112.65 912.463C1110.91 909.536 1108.45 907.102 1105.51 905.391L902.352 787.366C900.791 786.46 899.36 785.346 898.098 784.055L827.155 711.5C818.99 703.149 819.687 689.607 828.668 682.14L989.525 548.374C996.796 542.328 998.838 532.015 994.421 523.654L956.107 451.13C950.658 440.817 937.576 437.335 927.722 443.576L833.575 503.203C828.756 506.255 822.863 507.104 817.379 505.537L756.511 488.146C739.968 483.419 736.718 461.396 751.19 452.092L818.332 408.929C823.203 405.798 826.478 400.709 827.31 394.979L843.336 284.577C843.773 281.566 843.517 278.494 842.587 275.596L778.308 75.1963C776.821 70.5588 773.692 66.6234 769.51 64.1285L673.838 7.06122C666.71 2.8097 657.698 3.40182 651.188 8.5493L589.229 57.54C581.587 63.5826 579.41 74.2525 584.076 82.8054Z" fill="#FFE1BF"/>
<path fill-rule="evenodd" clip-rule="evenodd" d="M1142.76 984.19L1140 980L874 900L760 956L702 1026L600 1002L562 928L502 900V1122L509.039 1124.21L628.626 1067.5C633.353 1065.26 638.77 1064.96 643.715 1066.66L747.173 1102.34C750.34 1103.43 753.731 1103.71 757.035 1103.15L985.111 1064.49C987.027 1064.16 988.885 1063.56 990.627 1062.7L1134.62 991.573C1138.11 989.849 1140.86 987.255 1142.76 984.19Z" fill="#FFE1BF"/>
<path fill-rule="evenodd" clip-rule="evenodd" d="M1142.76 984.19L1140 980L874 900L760 956L702 1026L600 1002L562 928L502 900V1122L509.039 1124.21L628.626 1067.5C633.353 1065.26 638.77 1064.96 643.715 1066.66L747.173 1102.34C750.34 1103.43 753.731 1103.71 757.035 1103.15L985.111 1064.49C987.027 1064.16 988.885 1063.56 990.627 1062.7L1134.62 991.573C1138.11 989.849 1140.86 987.255 1142.76 984.19Z" fill="#130D17" fill-opacity="0.1"/>
<path fill-rule="evenodd" clip-rule="evenodd" d="M279.978 834.008V712.008L337.978 692.008L279.978 546.008L425.978 450.008L617.978 546.008L653.978 610.008L603.978 634.008L563.978 744.008L653.978 802.008L719.978 898.008H617.978L495.978 788.008V834.008L409.978 884.008L279.978 834.008Z" fill="#FFE1BF"/>
<path fill-rule="evenodd" clip-rule="evenodd" d="M279.978 834.008V712.008L337.978 692.008L279.978 546.008L425.978 450.008L617.978 546.008L653.978 610.008L603.978 634.008L563.978 744.008L653.978 802.008L719.978 898.008H617.978L495.978 788.008V834.008L409.978 884.008L279.978 834.008Z" fill="#130D17" fill-opacity="0.1"/>
<path d="M279.978 712.008L271.828 688.374L254.978 712.008H279.978ZM279.978 834.008H254.978L271.004 857.342L279.978 834.008ZM337.978 692.008L346.128 715.643L361.212 682.778L337.978 692.008ZM279.978 546.008L266.243 525.119L256.744 555.238L279.978 546.008ZM425.978 450.008L437.158 427.648L412.243 429.119L425.978 450.008ZM617.978 546.008L639.767 533.752L629.158 523.648L617.978 546.008ZM653.978 610.008L664.796 632.546L675.767 597.752L653.978 610.008ZM603.978 634.008L593.16 611.47L580.483 625.465L603.978 634.008ZM563.978 744.008L540.483 735.465L550.435 765.022L563.978 744.008ZM653.978 802.008L674.579 787.845L667.521 780.994L653.978 802.008ZM719.978 898.008V923.008L740.579 883.845L719.978 898.008ZM617.978 898.008L601.237 916.575L617.978 923.008V898.008ZM495.978 788.008L512.719 769.441L470.978 788.008H495.978ZM495.978 834.008L508.544 855.621L520.978 834.008H495.978ZM409.978 884.008L401.004 907.342L422.544 905.621L409.978 884.008ZM121.478 783.266C113.075 772.31 97.3813 770.241 86.4257 778.644C75.47 787.047 73.4007 802.74 81.8037 813.696L121.478 783.266ZM177.978 898.008L158.141 913.223L183.019 922.495L177.978 898.008ZM245.978 884.008L251.019 908.495L266.651 898.066L245.978 884.008ZM300.651 848.066C308.415 836.648 305.453 821.099 294.036 813.335C282.618 805.571 267.069 808.533 259.305 819.95L300.651 848.066ZM653.978 610.008H628.978L646.398 633.831L653.978 610.008ZM653.978 508.008L633.377 493.845L628.978 508.008H653.978ZM719.978 412.008L709.527 389.298L699.377 397.845L719.978 412.008ZM804.695 400.543C817.238 394.771 822.726 379.924 816.954 367.381C811.182 354.838 796.335 349.35 783.793 355.122L804.695 400.543ZM697.978 624.008L690.398 647.831L713.164 643.867L697.978 624.008ZM765.978 572.008V547.008L750.792 552.149L765.978 572.008ZM863.978 572.008V597.008L871.296 595.913L863.978 572.008ZM926.63 578.974C939.832 574.932 947.258 560.954 943.217 547.751C939.175 534.549 925.196 527.123 911.994 531.164L926.63 578.974ZM254.978 712.008V834.008H304.978V712.008H254.978ZM329.828 668.374L271.828 688.374L288.128 735.643L346.128 715.643L329.828 668.374ZM256.744 555.238L314.744 701.238L361.212 682.778L303.212 536.778L256.744 555.238ZM412.243 429.119L266.243 525.119L293.713 566.897L439.713 470.897L412.243 429.119ZM629.158 523.648L437.158 427.648L414.798 472.369L606.798 568.369L629.158 523.648ZM675.767 597.752L639.767 533.752L596.189 558.265L632.189 622.265L675.767 597.752ZM614.796 656.546L664.796 632.546L643.16 587.47L593.16 611.47L614.796 656.546ZM587.473 752.552L627.473 642.552L580.483 625.465L540.483 735.465L587.473 752.552ZM667.521 780.994L577.521 722.994L550.435 765.022L640.435 823.022L667.521 780.994ZM740.579 883.845L674.579 787.845L633.377 816.171L699.377 912.171L740.579 883.845ZM617.978 923.008H719.978V873.008H617.978V923.008ZM479.237 806.575L601.237 916.575L634.719 879.441L512.719 769.441L479.237 806.575ZM520.978 834.008V788.008H470.978V834.008H520.978ZM422.544 905.621L508.544 855.621L483.413 812.396L397.413 862.396L422.544 905.621ZM271.004 857.342L401.004 907.342L418.952 860.675L288.953 810.675L271.004 857.342ZM81.8037 813.696L158.141 913.223L197.815 882.793L121.478 783.266L81.8037 813.696ZM183.019 922.495L251.019 908.495L240.937 859.522L172.937 873.522L183.019 922.495ZM266.651 898.066L300.651 848.066L259.305 819.95L225.305 869.95L266.651 898.066ZM678.978 610.008V508.008H628.978V610.008H678.978ZM674.579 522.171L740.579 426.171L699.377 397.845L633.377 493.845L674.579 522.171ZM730.429 434.719L804.695 400.543L783.793 355.122L709.527 389.298L730.429 434.719ZM646.398 633.831L690.398 647.831L705.558 600.185L661.558 586.185L646.398 633.831ZM713.164 643.867L781.164 591.867L750.792 552.149L682.792 604.149L713.164 643.867ZM765.978 597.008H863.978V547.008H765.978V597.008ZM871.296 595.913L926.63 578.974L911.994 531.164L856.66 548.103L871.296 595.913Z" fill="#FFE1BF"/>
<path d="M279.978 712.008L271.828 688.374L254.978 712.008H279.978ZM279.978 834.008H254.978L271.004 857.342L279.978 834.008ZM337.978 692.008L346.128 715.643L361.212 682.778L337.978 692.008ZM279.978 546.008L266.243 525.119L256.744 555.238L279.978 546.008ZM425.978 450.008L437.158 427.648L412.243 429.119L425.978 450.008ZM617.978 546.008L639.767 533.752L629.158 523.648L617.978 546.008ZM653.978 610.008L664.796 632.546L675.767 597.752L653.978 610.008ZM603.978 634.008L593.16 611.47L580.483 625.465L603.978 634.008ZM563.978 744.008L540.483 735.465L550.435 765.022L563.978 744.008ZM653.978 802.008L674.579 787.845L667.521 780.994L653.978 802.008ZM719.978 898.008V923.008L740.579 883.845L719.978 898.008ZM617.978 898.008L601.237 916.575L617.978 923.008V898.008ZM495.978 788.008L512.719 769.441L470.978 788.008H495.978ZM495.978 834.008L508.544 855.621L520.978 834.008H495.978ZM409.978 884.008L401.004 907.342L422.544 905.621L409.978 884.008ZM121.478 783.266C113.075 772.31 97.3813 770.241 86.4257 778.644C75.47 787.047 73.4007 802.74 81.8037 813.696L121.478 783.266ZM177.978 898.008L158.141 913.223L183.019 922.495L177.978 898.008ZM245.978 884.008L251.019 908.495L266.651 898.066L245.978 884.008ZM300.651 848.066C308.415 836.648 305.453 821.099 294.036 813.335C282.618 805.571 267.069 808.533 259.305 819.95L300.651 848.066ZM653.978 610.008H628.978L646.398 633.831L653.978 610.008ZM653.978 508.008L633.377 493.845L628.978 508.008H653.978ZM719.978 412.008L709.527 389.298L699.377 397.845L719.978 412.008ZM804.695 400.543C817.238 394.771 822.726 379.924 816.954 367.381C811.182 354.838 796.335 349.35 783.793 355.122L804.695 400.543ZM697.978 624.008L690.398 647.831L713.164 643.867L697.978 624.008ZM765.978 572.008V547.008L750.792 552.149L765.978 572.008ZM863.978 572.008V597.008L871.296 595.913L863.978 572.008ZM926.63 578.974C939.832 574.932 947.258 560.954 943.217 547.751C939.175 534.549 925.196 527.123 911.994 531.164L926.63 578.974ZM254.978 712.008V834.008H304.978V712.008H254.978ZM329.828 668.374L271.828 688.374L288.128 735.643L346.128 715.643L329.828 668.374ZM256.744 555.238L314.744 701.238L361.212 682.778L303.212 536.778L256.744 555.238ZM412.243 429.119L266.243 525.119L293.713 566.897L439.713 470.897L412.243 429.119ZM629.158 523.648L437.158 427.648L414.798 472.369L606.798 568.369L629.158 523.648ZM675.767 597.752L639.767 533.752L596.189 558.265L632.189 622.265L675.767 597.752ZM614.796 656.546L664.796 632.546L643.16 587.47L593.16 611.47L614.796 656.546ZM587.473 752.552L627.473 642.552L580.483 625.465L540.483 735.465L587.473 752.552ZM667.521 780.994L577.521 722.994L550.435 765.022L640.435 823.022L667.521 780.994ZM740.579 883.845L674.579 787.845L633.377 816.171L699.377 912.171L740.579 883.845ZM617.978 923.008H719.978V873.008H617.978V923.008ZM479.237 806.575L601.237 916.575L634.719 879.441L512.719 769.441L479.237 806.575ZM520.978 834.008V788.008H470.978V834.008H520.978ZM422.544 905.621L508.544 855.621L483.413 812.396L397.413 862.396L422.544 905.621ZM271.004 857.342L401.004 907.342L418.952 860.675L288.953 810.675L271.004 857.342ZM81.8037 813.696L158.141 913.223L197.815 882.793L121.478 783.266L81.8037 813.696ZM183.019 922.495L251.019 908.495L240.937 859.522L172.937 873.522L183.019 922.495ZM266.651 898.066L300.651 848.066L259.305 819.95L225.305 869.95L266.651 898.066ZM678.978 610.008V508.008H628.978V610.008H678.978ZM674.579 522.171L740.579 426.171L699.377 397.845L633.377 493.845L674.579 522.171ZM730.429 434.719L804.695 400.543L783.793 355.122L709.527 389.298L730.429 434.719ZM646.398 633.831L690.398 647.831L705.558 600.185L661.558 586.185L646.398 633.831ZM713.164 643.867L781.164 591.867L750.792 552.149L682.792 604.149L713.164 643.867ZM765.978 597.008H863.978V547.008H765.978V597.008ZM871.296 595.913L926.63 578.974L911.994 531.164L856.66 548.103L871.296 595.913Z" fill="#130D17" fill-opacity="0.1"/>
</svg>
