<svg width="816" height="665" viewBox="0 0 816 665" fill="none" xmlns="http://www.w3.org/2000/svg">
<mask id="path-1-inside-1_203_45" fill="white">
<path fill-rule="evenodd" clip-rule="evenodd" d="M6.37427 260.566C2.20848 244.519 0 227.752 0 210.5C0 94.2441 100.288 0 224 0C300.214 0 367.538 35.7685 408 90.4167C448.462 35.7685 515.786 0 592 0C715.712 0 816 94.2441 816 210.5C816 227.752 813.792 244.519 809.626 260.566C771.146 424.419 527.635 597.588 408 665C288.365 597.588 44.8541 424.419 6.37427 260.566Z"/>
</mask>
<path d="M6.37427 260.566L55.05 249.134L54.9166 248.566L54.77 248.002L6.37427 260.566ZM408 90.4167L367.816 120.169L408 174.442L448.184 120.169L408 90.4167ZM809.626 260.566L761.23 248.002L761.083 248.566L760.95 249.134L809.626 260.566ZM408 665L383.455 708.561L408 722.391L432.545 708.561L408 665ZM54.77 248.002C51.6572 236.011 50 223.465 50 210.5H-50C-50 232.039 -47.2402 253.027 -42.0215 273.129L54.77 248.002ZM50 210.5C50 124.741 124.929 50 224 50V-50C75.6474 -50 -50 63.7474 -50 210.5H50ZM224 50C284.474 50 336.846 78.3418 367.816 120.169L448.184 60.6639C398.23 -6.80478 315.954 -50 224 -50V50ZM448.184 120.169C479.154 78.3418 531.526 50 592 50V-50C500.046 -50 417.77 -6.80478 367.816 60.6639L448.184 120.169ZM592 50C691.071 50 766 124.741 766 210.5H866C866 63.7474 740.353 -50 592 -50V50ZM766 210.5C766 223.464 764.343 236.011 761.23 248.002L858.021 273.129C863.24 253.027 866 232.039 866 210.5H766ZM432.545 708.561C494.949 673.398 588.811 611.216 672.598 536.2C754.456 462.911 835.317 369.869 858.301 271.997L760.95 249.134C745.455 315.116 685.32 390.586 605.894 461.697C528.397 531.082 440.686 589.191 383.455 621.439L432.545 708.561ZM-42.3015 271.997C-19.317 369.869 61.5439 462.911 143.402 536.2C227.189 611.216 321.051 673.398 383.455 708.561L432.545 621.439C375.314 589.191 287.603 531.082 210.106 461.697C130.68 390.586 70.5453 315.116 55.05 249.134L-42.3015 271.997Z" fill="#CD0E0E" mask="url(#path-1-inside-1_203_45)"/>
<path d="M6.37427 260.566L55.05 249.134L54.9166 248.566L54.77 248.002L6.37427 260.566ZM408 90.4167L367.816 120.169L408 174.442L448.184 120.169L408 90.4167ZM809.626 260.566L761.23 248.002L761.083 248.566L760.95 249.134L809.626 260.566ZM408 665L383.455 708.561L408 722.391L432.545 708.561L408 665ZM54.77 248.002C51.6572 236.011 50 223.465 50 210.5H-50C-50 232.039 -47.2402 253.027 -42.0215 273.129L54.77 248.002ZM50 210.5C50 124.741 124.929 50 224 50V-50C75.6474 -50 -50 63.7474 -50 210.5H50ZM224 50C284.474 50 336.846 78.3418 367.816 120.169L448.184 60.6639C398.23 -6.80478 315.954 -50 224 -50V50ZM448.184 120.169C479.154 78.3418 531.526 50 592 50V-50C500.046 -50 417.77 -6.80478 367.816 60.6639L448.184 120.169ZM592 50C691.071 50 766 124.741 766 210.5H866C866 63.7474 740.353 -50 592 -50V50ZM766 210.5C766 223.464 764.343 236.011 761.23 248.002L858.021 273.129C863.24 253.027 866 232.039 866 210.5H766ZM432.545 708.561C494.949 673.398 588.811 611.216 672.598 536.2C754.456 462.911 835.317 369.869 858.301 271.997L760.95 249.134C745.455 315.116 685.32 390.586 605.894 461.697C528.397 531.082 440.686 589.191 383.455 621.439L432.545 708.561ZM-42.3015 271.997C-19.317 369.869 61.5439 462.911 143.402 536.2C227.189 611.216 321.051 673.398 383.455 708.561L432.545 621.439C375.314 589.191 287.603 531.082 210.106 461.697C130.68 390.586 70.5453 315.116 55.05 249.134L-42.3015 271.997Z" fill="black" fill-opacity="0.5" mask="url(#path-1-inside-1_203_45)"/>
</svg>
