<svg width="816" height="665" viewBox="0 0 816 665" fill="none" xmlns="http://www.w3.org/2000/svg">
<path fill-rule="evenodd" clip-rule="evenodd" d="M6.37427 260.566C2.20848 244.519 0 227.752 0 210.5C0 94.2441 100.288 0 224 0C300.214 0 367.538 35.7685 408 90.4167C448.462 35.7685 515.786 0 592 0C715.712 0 816 94.2441 816 210.5C816 227.752 813.792 244.519 809.626 260.566C771.146 424.419 527.635 597.588 408 665C288.365 597.588 44.8541 424.419 6.37427 260.566Z" fill="#CD0E0E"/>
<path d="M114.999 130C74.9999 230 181 444 327 512" stroke="#D83E47" stroke-width="50" stroke-linecap="round"/>
</svg>
