<svg width="632" height="468" viewBox="0 0 632 468" fill="none" xmlns="http://www.w3.org/2000/svg">
<rect y="169" width="398" height="129" rx="50" fill="#EFEFEF"/>
<circle cx="398" cy="234" r="209" fill="#653C2A" stroke="#EFEFEF" stroke-width="50"/>
<path fill-rule="evenodd" clip-rule="evenodd" d="M448.361 56.977C432.356 52.4324 415.462 50 398 50C386.825 50 375.883 50.9962 365.258 52.9045C341.315 105.529 273.913 171.044 214.502 220.305C214.169 224.827 214 229.394 214 234C214 278.85 230.046 319.951 256.711 351.877C373.414 359.396 428.244 194.041 448.361 56.977ZM572.569 292.309C548.183 365.35 479.24 418 398 418C373.182 418 349.511 413.086 327.908 404.179C409.13 386.106 515.524 353.306 572.569 292.309Z" fill="#EFEFEF" fill-opacity="0.15"/>
</svg>
