<svg width="94" height="655" viewBox="0 0 94 655" fill="none" xmlns="http://www.w3.org/2000/svg">
<rect x="12.5879" y="73.8501" width="67.5561" height="537.511" rx="20" fill="#77C6FF"/>
<rect x="21.8193" y="524.084" width="45.3171" height="130.916" rx="20" fill="#77C6FF"/>
<rect x="6.71387" y="372.188" width="79.7245" height="239.174" rx="20" fill="#DEF1FF"/>
<path d="M37.3092 22.8466C40.6845 14.5248 52.4673 14.5248 55.8427 22.8466L81.3312 85.6872C83.9981 92.2622 79.1598 99.4459 72.0645 99.4459H21.0873C13.9921 99.4459 9.15373 92.2622 11.8206 85.6872L37.3092 22.8466Z" fill="#77C6FF"/>
<path fill-rule="evenodd" clip-rule="evenodd" d="M68.9836 55.2453C68.4284 55.3387 67.8526 55.3876 67.2585 55.3876H25.8931C25.299 55.3876 24.7232 55.3387 24.168 55.2453L37.3091 22.8467C40.6844 14.5249 52.4672 14.5249 55.8425 22.8467L68.9836 55.2453Z" fill="#130D17"/>
</svg>
