<svg width="65" height="452" viewBox="0 0 65 452" fill="none" xmlns="http://www.w3.org/2000/svg">
<rect x="8.6875" y="50.9622" width="46.6188" height="370.924" rx="20" fill="#2A6534"/>
<rect x="15.0547" y="361.658" width="31.2723" height="90.3421" rx="15.6361" fill="#2A6534"/>
<rect x="4.63281" y="256.838" width="55.016" height="165.048" rx="20" fill="#60BB5E"/>
<path d="M22.8742 22.8466C26.2496 14.5248 38.0323 14.5248 41.4077 22.8466L54.3952 54.8666C57.0621 61.4416 52.2237 68.6252 45.1285 68.6252H19.1534C12.0582 68.6252 7.21981 61.4416 9.88667 54.8666L22.8742 22.8466Z" fill="#2A6534"/>
<path fill-rule="evenodd" clip-rule="evenodd" d="M46.7144 35.9314C45.0295 37.342 42.8396 38.2217 40.3221 38.2217H23.9588C21.4412 38.2217 19.2513 37.342 17.5664 35.9314L22.8737 22.8467C26.249 14.5249 38.0318 14.5249 41.4071 22.8467L46.7144 35.9314Z" fill="#130D17"/>
</svg>
